PathFileType	4	(x/y/z)	S08_P20_T05
DataRate	CameraRate	NumFrames	NumMarkers	Units	OrigDataRate	OrigDataStartFrame	OrigNumFrames
240	240	6	51	mm	240	195	388
Frame#	Time	Sternum			R.Acromium			L.Acromium			Top.Head			R.ASIS			L.ASIS			R.PSIS			L.PSIS			R.Great.Tro			L.Great.Tro			R.Iliac.Crest			L.Iliac.Crest			V.Sacral			R.Thigh.Upper.Post			R.Thigh.Lower.Ant			R.Thigh.Lower.Post			R.Thigh.Upper.Ant			R.Knee.Lat			R.Knee.Med			R.Shank.Upper.Post			R.Shank.Lower.Ant			R.Shank.Lower.Post			R.Shank.Upper.Ant			R.Ankle.Lat			R.Ankle.Med			R.Heel.Upper			R.Heel.Med			R.Heel.Lat			R.Toe.Lat			R.Toe.Med			R.Toe.Tip			L.Thigh.Upper.Post			L.Thigh.Lower.Ant			L.Thigh.Lower.Post			L.Thigh.Upper.Ant			L.Knee.Lat			L.Knee.Med			L.Shank.Upper.Post			L.Shank.Lower.Ant			L.Shank.Lower.Post			L.Shank.Upper.Ant			L.Ankle.Lat			L.Ankle.Med			L.Heel.Upper			L.Heel.Med			L.Heel.Lat			L.Toe.Lat			L.Toe.Med			L.Toe.Tip			Cervical.Spine			Back			
		X1	Y1	Z1	X2	Y2	Z2	X3	Y3	Z3	X4	Y4	Z4	X5	Y5	Z5	X6	Y6	Z6	X7	Y7	Z7	X8	Y8	Z8	X9	Y9	Z9	X10	Y10	Z10	X11	Y11	Z11	X12	Y12	Z12	X13	Y13	Z13	X14	Y14	Z14	X15	Y15	Z15	X16	Y16	Z16	X17	Y17	Z17	X18	Y18	Z18	X19	Y19	Z19	X20	Y20	Z20	X21	Y21	Z21	X22	Y22	Z22	X23	Y23	Z23	X24	Y24	Z24	X25	Y25	Z25	X26	Y26	Z26	X27	Y27	Z27	X28	Y28	Z28	X29	Y29	Z29	X30	Y30	Z30	X31	Y31	Z31	X32	Y32	Z32	X33	Y33	Z33	X34	Y34	Z34	X35	Y35	Z35	X36	Y36	Z36	X37	Y37	Z37	X38	Y38	Z38	X39	Y39	Z39	X40	Y40	Z40	X41	Y41	Z41	X42	Y42	Z42	X43	Y43	Z43	X44	Y44	Z44	X45	Y45	Z45	X46	Y46	Z46	X47	Y47	Z47	X48	Y48	Z48	X49	Y49	Z49	X50	Y50	Z50	X51	Y51	Z51	

195	0.80833	-280.92	1234.4	302.32	-382.61	1471.3	485.81	-417.37	1501.2	153.6	-375	1791.2	341.95	-314.37	1023.2	419.88	-315.26	1024.1	189.12	-514.65	1044	341.73	-512.34	1045.3	248.71	-386.7	914.6	489.28	-388.7	912.79	118.46	-407.67	1091.4	463.35	-410.59	1102.3	156.15	-529.07	1003	295.27	-433.24	716.82	468.51	-366.98	613.15	427.75	-435.22	628.01	446.46	-356.05	704.95	452.95	-418.03	519.05	419.32	-443.41	529.57	293.55	-512.52	344.66	418.45	-459.53	276.46	395.3	-523.22	269.25	406.67	-448.69	352.37	408.07	-543.27	103.74	360.01	-516.6	118.68	284.73	-595.95	69.77	312.12	-583.16	41.266	286.27	-591.16	46.279	347.15	NaN	NaN	NaN	-394.25	45.049	278.12	-330.81	55.556	327.83	-309	708.95	135.72	-191.31	665.45	153.15	-254.85	636.75	152.12	-241.87	736.82	131.36	-206.45	557.43	167.69	-191.29	556.31	290.74	-278.88	387.58	166.13	-219.15	293.8	177.04	-287.46	315.21	180.06	-216.31	369.1	164.3	-284.06	142.3	185.53	-247.14	144.03	267.82	-332.91	115.11	240.12	-317.97	81.069	269.27	-331.54	87.86	207.05	-163.59	65.601	153.47	-129.71	70.183	263.63	-72.584	84.295	207.39	-464.8	1529.6	320.22	-515.42	1248.9	324.66
196	0.8125	-275.45	1233.7	302.43	-377.03	1470.7	485.85	-411.79	1500.4	153.54	-369.45	1790.6	341.76	-309.14	1022.5	419.95	-309.73	1023.7	189.13	-509.24	1043.5	341.54	-506.85	1044.8	248.52	-381.98	914.12	489.22	-383.06	912.4	118.34	-402.39	1090.7	463.28	-405.17	1101.9	156.12	-523.61	1002.5	295.02	-429.97	716.83	468.39	-364.39	612.66	427.73	-432.53	628.03	446.29	-352.89	704.42	452.96	-416.18	518.88	419.34	-441.13	529.55	293.45	-511.59	344.93	418.21	-458.82	276.48	395.22	-522.56	269.58	406.42	-447.68	352.34	408.06	-543.04	104.03	359.67	-516.12	118.86	284.47	-595.75	69.983	311.73	-582.87	41.395	285.94	-591.06	46.503	346.78	NaN	NaN	NaN	-394.03	45.03	278.11	-330.64	55.268	327.93	-304.16	708.33	135.92	-186.61	664.48	153.46	-250.24	635.99	152.36	-236.94	736	131.6	-201.44	556.63	168.03	-186.74	555.48	291.03	-269.45	384.52	166.23	-207.1	292.49	177.41	-276	311.93	180.22	-206.37	367.83	164.61	-267.4	138.99	185.82	-230.65	141.87	268.3	-315.55	110.38	240.35	-299.66	76.887	269.7	-313.35	83.123	207.42	-144.76	65.643	154.22	-111.2	71.509	264.47	-54.451	87.077	208.25	-459.23	1529	320.21	-509.99	1248.3	324.71
197	0.81667	-269.98	1233	302.53	-371.45	1470	485.88	-406.19	1499.6	153.48	-363.92	1790	341.56	-303.88	1021.8	420.01	-304.19	1023.3	189.14	-503.8	1042.9	341.35	-501.34	1044.3	248.34	-377.25	913.62	489.15	-377.42	911.96	118.22	-397.09	1090.1	463.21	-399.74	1101.4	156.08	-518.14	1002	294.77	-426.67	716.82	468.26	-361.76	612.16	427.74	-429.8	628.03	446.11	-349.7	703.87	452.99	-414.28	518.71	419.35	-438.78	529.5	293.34	-510.62	345.21	417.97	-458.07	276.49	395.13	-521.87	269.91	406.17	-446.63	352.32	408.05	-542.8	104.33	359.32	-515.62	119.06	284.22	-595.54	70.209	311.34	-582.6	41.547	285.59	-590.95	46.738	346.4	NaN	NaN	NaN	-393.81	45.012	278.11	-330.48	54.981	328.02	-299.41	707.62	136.09	-182.03	663.39	153.74	-245.74	635.11	152.56	-232.11	735.08	131.82	-196.54	555.72	168.33	-182.3	554.53	291.31	-260.07	381.49	166.32	-195.17	291.28	177.78	-264.61	308.75	180.36	-196.53	366.59	164.91	-250.82	135.9	186.13	-214.33	139.92	268.82	-298.32	105.91	240.57	-281.47	72.984	270.14	-295.23	78.663	207.79	-126.11	65.937	155.04	-92.966	73.074	265.42	-36.603	90.076	209.23	-453.65	1528.4	320.2	-504.55	1247.7	324.74
198	0.82083	-264.5	1232.2	302.63	-365.86	1469.3	485.9	-400.55	1498.8	153.4	-358.39	1789.4	341.35	-298.6	1021.1	420.06	-298.63	1022.8	189.14	-498.35	1042.3	341.15	-495.81	1043.7	248.14	-372.49	913.1	489.09	-371.76	911.46	118.1	-391.77	1089.4	463.13	-394.3	1100.9	156.01	-512.65	1001.4	294.52	-423.34	716.8	468.12	-359.08	611.65	427.77	-427.04	628.01	445.93	-346.48	703.31	453.04	-412.33	518.52	419.37	-436.35	529.44	293.24	-509.61	345.49	417.73	-457.29	276.5	395.06	-521.15	270.24	405.91	-445.52	352.28	408.03	-542.55	104.65	358.99	-515.12	119.26	283.97	-595.32	70.451	310.96	-582.33	41.724	285.25	-590.85	46.988	346.02	NaN	NaN	NaN	-393.59	44.995	278.1	-330.31	54.692	328.12	-294.76	706.82	136.23	-177.55	662.18	153.99	-241.36	634.12	152.71	-227.36	734.04	132	-191.74	554.69	168.59	-177.95	553.46	291.59	-250.74	378.51	166.4	-183.36	290.17	178.15	-253.29	305.68	180.5	-186.8	365.4	165.22	-234.37	133.03	186.45	-198.21	138.2	269.36	-281.23	101.71	240.78	-263.44	69.36	270.58	-277.22	74.486	208.15	-107.68	66.48	155.94	-75.046	74.865	266.45	-19.07	93.28	210.33	-448.07	1527.7	320.17	-499.11	1247	324.76
199	0.825	-259.02	1231.4	302.71	-360.27	1468.6	485.91	-394.88	1497.9	153.31	-352.87	1788.8	341.13	-293.29	1020.4	420.1	-293.05	1022.3	189.13	-492.88	1041.6	340.94	-490.27	1043.1	247.94	-367.7	912.56	489.01	-366.1	910.91	117.97	-386.43	1088.7	463.05	-388.83	1100.3	155.94	-507.14	1000.7	294.27	-419.97	716.77	467.98	-356.36	611.12	427.84	-424.23	627.98	445.73	-343.23	702.73	453.11	-410.32	518.33	419.39	-433.83	529.35	293.14	-508.54	345.78	417.49	-456.46	276.51	394.99	-520.39	270.59	405.66	-444.37	352.23	408.02	-542.3	104.97	358.66	-514.61	119.47	283.73	-595.1	70.712	310.58	-582.07	41.928	284.91	-590.74	47.256	345.66	NaN	NaN	NaN	-393.37	44.978	278.09	-330.16	54.403	328.22	-290.19	705.92	136.31	-173.16	660.86	154.2	-237.06	633.04	152.81	-222.69	732.9	132.16	-187.02	553.55	168.81	-173.69	552.28	291.86	-241.47	375.59	166.48	-171.71	289.14	178.53	-242.08	302.71	180.62	-177.17	364.25	165.53	-218.09	130.39	186.79	-182.31	136.68	269.92	-264.35	97.781	240.99	-245.61	66.014	271.03	-259.37	70.594	208.52	-89.504	67.268	156.9	-57.472	76.866	267.58	-1.8835	96.674	211.53	-442.48	1527	320.14	-493.65	1246.4	324.77
200	0.82917	-253.54	1230.6	302.79	-354.66	1467.8	485.9	-389.18	1497	153.21	-347.36	1788.1	340.89	-287.95	1019.6	420.13	-287.46	1021.7	189.11	-487.39	1040.9	340.71	-484.7	1042.4	247.73	-362.9	912	488.94	-360.42	910.3	117.84	-381.08	1087.9	462.96	-383.34	1099.7	155.84	-501.61	1000	294.01	-416.56	716.71	467.84	-353.57	610.58	427.93	-421.37	627.94	445.54	-339.93	702.13	453.2	-408.24	518.13	419.42	-431.23	529.24	293.04	-507.4	346.07	417.25	-455.57	276.51	394.93	-519.58	270.93	405.41	-443.14	352.17	408	-542.04	105.31	358.36	-514.09	119.69	283.51	-594.87	70.996	310.23	-581.82	42.162	284.58	-590.64	47.544	345.31	NaN	NaN	NaN	-393.16	44.96	278.09	-330	54.111	328.31	-285.69	704.94	136.35	-168.85	659.44	154.37	-232.84	631.86	152.88	-218.08	731.67	132.27	-182.38	552.32	168.99	-169.52	551.01	292.12	-232.29	372.75	166.56	-160.22	288.22	178.92	-230.98	299.87	180.75	-167.68	363.15	165.85	-202	127.99	187.15	-166.69	135.37	270.5	-247.7	94.118	241.18	-228.04	62.942	271.49	-241.71	66.99	208.88	-71.63	68.287	157.93	-40.274	79.059	268.77	14.924	100.24	212.84	-436.9	1526.3	320.09	-488.19	1245.6	324.77
